<svg width="1440" height="900" viewBox="0 0 1440 900" xmlns="http://www.w3.org/2000/svg" font-family="Inter, 'Space Grotesk', system-ui, sans-serif">

  <!-- ===== TOKENS (referencia rápida para editar) =====
    Fondo base:      #1C1B1F
    Panel:           #242229
    Panel alterno:   #2B2831
    Línea/borde:     #38353E
    Texto principal: #F2F0EA
    Texto secundario:#9C98A3
    Acento (ember):  #E8590C
    Acento suave:    #F2A65A
    Éxito:           #4FAE7C
    Tipografía título: Space Grotesk (geométrica, evoca "forja/industrial")
    Tipografía cuerpo: Inter
  ================================================== -->

  <rect width="1440" height="900" fill="#1C1B1F"/>

  <!-- ===================== SIDEBAR ===================== -->
  <rect x="0" y="0" width="220" height="900" fill="#242229"/>
  <line x1="220" y1="0" x2="220" y2="900" stroke="#38353E" stroke-width="1"/>

  <!-- logo mark: yunque simplificado -->
  <g transform="translate(28,28)">
    <rect x="0" y="10" width="28" height="8" rx="1" fill="#E8590C"/>
    <rect x="8" y="18" width="12" height="14" fill="#E8590C"/>
    <text x="38" y="24" fill="#F2F0EA" font-size="17" font-weight="700" font-family="'Space Grotesk', sans-serif">SocialForge</text>
  </g>

  <!-- nav items -->
  <g font-size="14" fill="#9C98A3">
    <!-- item activo -->
    <rect x="12" y="88" width="196" height="40" rx="4" fill="#2B2831"/>
    <rect x="12" y="88" width="3" height="40" fill="#E8590C"/>
    <circle cx="34" cy="108" r="4" fill="#F2F0EA"/>
    <text x="50" y="112" fill="#F2F0EA" font-weight="600">Dashboard</text>

    <circle cx="34" cy="156" r="4" fill="#9C98A3"/>
    <text x="50" y="160">Calendar</text>

    <circle cx="34" cy="204" r="4" fill="#9C98A3"/>
    <text x="50" y="208">Composer</text>

    <circle cx="34" cy="252" r="4" fill="#9C98A3"/>
    <text x="50" y="256">Queue</text>

    <circle cx="34" cy="300" r="4" fill="#9C98A3"/>
    <text x="50" y="304">Media</text>

    <circle cx="34" cy="348" r="4" fill="#9C98A3"/>
    <text x="50" y="352">Accounts</text>

    <circle cx="34" cy="396" r="4" fill="#9C98A3"/>
    <text x="50" y="400">Settings</text>
  </g>

  <!-- estado local-only, abajo del sidebar -->
  <g transform="translate(12,800)">
    <rect width="196" height="64" rx="4" fill="#2B2831" stroke="#38353E"/>
    <circle cx="20" cy="22" r="4" fill="#4FAE7C"/>
    <text x="32" y="26" fill="#F2F0EA" font-size="12" font-weight="600">Local Only activo</text>
    <text x="16" y="46" fill="#9C98A3" font-size="11">Tus datos viven en esta máquina</text>
  </g>

  <!-- ===================== TOP BAR ===================== -->
  <text x="252" y="52" fill="#F2F0EA" font-size="22" font-weight="700" font-family="'Space Grotesk', sans-serif">Taller de Ana</text>
  <text x="252" y="72" fill="#9C98A3" font-size="13">Workspace · 3 cuentas conectadas</text>

  <g transform="translate(1268,30)">
    <rect width="140" height="40" rx="4" fill="#E8590C"/>
    <text x="70" y="25" fill="#1C1B1F" font-size="13" font-weight="700" text-anchor="middle">Nueva publicación</text>
  </g>

  <line x1="252" y1="92" x2="1408" y2="92" stroke="#38353E" stroke-width="1"/>

  <!-- ===================== PRÓXIMAS PUBLICACIONES (columna izquierda) ===================== -->
  <text x="252" y="130" fill="#F2F0EA" font-size="15" font-weight="700">Próximas publicaciones</text>

  <g transform="translate(252,148)">
    <rect width="620" height="420" rx="4" fill="#242229" stroke="#38353E"/>

    <!-- fila 1 -->
    <g transform="translate(20,20)">
      <circle cx="6" cy="6" r="6" fill="#E8590C"/>
      <text x="24" y="10" fill="#F2F0EA" font-size="13" font-weight="600">Lanzamiento colección otoño</text>
      <text x="24" y="30" fill="#9C98A3" font-size="12">Instagram · Lunes 10:00</text>
      <rect x="500" y="-6" width="80" height="24" rx="3" fill="#2B2831" stroke="#4FAE7C"/>
      <text x="540" y="10" fill="#4FAE7C" font-size="11" text-anchor="middle" font-weight="600">READY</text>
    </g>
    <line x1="20" y1="62" x2="600" y2="62" stroke="#38353E"/>

    <!-- fila 2 -->
    <g transform="translate(20,82)">
      <circle cx="6" cy="6" r="6" fill="#F2A65A"/>
      <text x="24" y="10" fill="#F2F0EA" font-size="13" font-weight="600">Promoción de octubre — cortes</text>
      <text x="24" y="30" fill="#9C98A3" font-size="12">Facebook · Lunes 14:00</text>
      <rect x="500" y="-6" width="80" height="24" rx="3" fill="#2B2831" stroke="#9C98A3"/>
      <text x="540" y="10" fill="#9C98A3" font-size="11" text-anchor="middle" font-weight="600">PENDING</text>
    </g>
    <line x1="20" y1="124" x2="600" y2="124" stroke="#38353E"/>

    <!-- fila 3 -->
    <g transform="translate(20,144)">
      <circle cx="6" cy="6" r="6" fill="#4FAE7C"/>
      <text x="24" y="10" fill="#F2F0EA" font-size="13" font-weight="600">Detrás de cámaras — taller</text>
      <text x="24" y="30" fill="#9C98A3" font-size="12">LinkedIn · Martes 09:00</text>
      <rect x="500" y="-6" width="90" height="24" rx="3" fill="#2B2831" stroke="#4FAE7C"/>
      <text x="545" y="10" fill="#4FAE7C" font-size="11" text-anchor="middle" font-weight="600">PUBLISHED</text>
    </g>
    <line x1="20" y1="186" x2="600" y2="186" stroke="#38353E"/>

    <!-- fila 4: fallo -->
    <g transform="translate(20,206)">
      <circle cx="6" cy="6" r="6" fill="#E05353"/>
      <text x="24" y="10" fill="#F2F0EA" font-size="13" font-weight="600">Nuevo horario de atención</text>
      <text x="24" y="30" fill="#9C98A3" font-size="12">TikTok · Miércoles 18:00</text>
      <rect x="500" y="-6" width="80" height="24" rx="3" fill="#2B2831" stroke="#E05353"/>
      <text x="540" y="10" fill="#E05353" font-size="11" text-anchor="middle" font-weight="600">FAILED</text>
    </g>

    <text x="20" y="380" fill="#9C98A3" font-size="12">+ 6 publicaciones más en los próximos 14 días</text>
  </g>

  <!-- ===================== COLUMNA DERECHA ===================== -->
  <text x="900" y="130" fill="#F2F0EA" font-size="15" font-weight="700">Estado del scheduler</text>
  <g transform="translate(900,148)">
    <rect width="256" height="90" rx="4" fill="#242229" stroke="#38353E"/>
    <circle cx="24" cy="28" r="5" fill="#4FAE7C"/>
    <text x="38" y="32" fill="#F2F0EA" font-size="13" font-weight="600">Activo</text>
    <text x="20" y="58" fill="#9C98A3" font-size="12">Última revisión: hace 2 min</text>
    <text x="20" y="76" fill="#9C98A3" font-size="12">Próximo job: en 41 min</text>
  </g>

  <text x="900" y="270" fill="#F2F0EA" font-size="15" font-weight="700">Cuentas conectadas</text>
  <g transform="translate(900,288)">
    <rect width="256" height="200" rx="4" fill="#242229" stroke="#38353E"/>

    <g transform="translate(20,20)">
      <circle cx="8" cy="8" r="8" fill="#E8590C"/>
      <text x="26" y="12" fill="#F2F0EA" font-size="12" font-weight="600">Instagram</text>
      <text x="26" y="28" fill="#9C98A3" font-size="11">@tallerdeana</text>
    </g>
    <line x1="20" y1="52" x2="236" y2="52" stroke="#38353E"/>

    <g transform="translate(20,64)">
      <circle cx="8" cy="8" r="8" fill="#4FAE7C"/>
      <text x="26" y="12" fill="#F2F0EA" font-size="12" font-weight="600">Facebook</text>
      <text x="26" y="28" fill="#9C98A3" font-size="11">Taller de Ana</text>
    </g>
    <line x1="20" y1="96" x2="236" y2="96" stroke="#38353E"/>

    <g transform="translate(20,108)">
      <circle cx="8" cy="8" r="8" fill="#9C98A3"/>
      <text x="26" y="12" fill="#F2F0EA" font-size="12" font-weight="600">LinkedIn</text>
      <text x="26" y="28" fill="#9C98A3" font-size="11">Taller de Ana MX</text>
    </g>

    <g transform="translate(20,152)">
      <rect width="216" height="32" rx="3" fill="none" stroke="#38353E" stroke-dasharray="3,3"/>
      <text x="108" y="20" fill="#9C98A3" font-size="12" text-anchor="middle">+ Conectar otra cuenta</text>
    </g>
  </g>

  <!-- ===================== COLA LOCAL — TIMELINE 14 DÍAS (franja inferior) ===================== -->
  <text x="252" y="612" fill="#F2F0EA" font-size="15" font-weight="700">Cola local · próximos 14 días</text>

  <g transform="translate(252,630)">
    <rect x="0" y="0" width="1156" height="110" rx="4" fill="#242229" stroke="#38353E"/>

    <!-- 14 columnas de día -->
    <g font-size="10" fill="#9C98A3">
      <!-- generamos 14 divisiones manualmente para mantenerlo editable -->
      <line x1="82" y1="10" x2="82" y2="100" stroke="#38353E"/>
      <line x1="164" y1="10" x2="164" y2="100" stroke="#38353E"/>
      <line x1="246" y1="10" x2="246" y2="100" stroke="#38353E"/>
      <line x1="328" y1="10" x2="328" y2="100" stroke="#38353E"/>
      <line x1="410" y1="10" x2="410" y2="100" stroke="#38353E"/>
      <line x1="492" y1="10" x2="492" y2="100" stroke="#38353E"/>
      <line x1="574" y1="10" x2="574" y2="100" stroke="#38353E"/>
      <line x1="656" y1="10" x2="656" y2="100" stroke="#38353E"/>
      <line x1="738" y1="10" x2="738" y2="100" stroke="#38353E"/>
      <line x1="820" y1="10" x2="820" y2="100" stroke="#38353E"/>
      <line x1="902" y1="10" x2="902" y2="100" stroke="#38353E"/>
      <line x1="984" y1="10" x2="984" y2="100" stroke="#38353E"/>
      <line x1="1066" y1="10" x2="1066" y2="100" stroke="#38353E"/>

      <text x="20" y="20">Lun</text>
      <text x="102" y="20">Mar</text>
      <text x="184" y="20">Mié</text>
      <text x="266" y="20">Jue</text>
      <text x="348" y="20">Vie</text>
      <text x="430" y="20">Sáb</text>
      <text x="512" y="20">Dom</text>
      <text x="594" y="20">Lun</text>
      <text x="676" y="20">Mar</text>
      <text x="758" y="20">Mié</text>
      <text x="840" y="20">Jue</text>
      <text x="922" y="20">Vie</text>
      <text x="1004" y="20">Sáb</text>
      <text x="1086" y="20">Dom</text>
    </g>

    <!-- puntos = publicaciones programadas en cada día -->
    <circle cx="30" cy="55" r="5" fill="#E8590C"/>
    <circle cx="46" cy="55" r="5" fill="#F2A65A"/>
    <circle cx="192" cy="55" r="5" fill="#4FAE7C"/>
    <circle cx="356" cy="55" r="5" fill="#E05353"/>
    <circle cx="438" cy="55" r="5" fill="#E8590C"/>
    <circle cx="602" cy="55" r="5" fill="#E8590C"/>
    <circle cx="684" cy="55" r="5" fill="#4FAE7C"/>
    <circle cx="848" cy="55" r="5" fill="#F2A65A"/>
    <circle cx="1012" cy="55" r="5" fill="#E8590C"/>
    <circle cx="1094" cy="55" r="5" fill="#4FAE7C"/>

    <text x="20" y="90" fill="#9C98A3" font-size="11">● programado &#160;&#160; ● publicado &#160;&#160; ● fallido</text>
  </g>

</svg>
